<svg width="150" height="43" viewBox="0 0 150 43" fill="none" xmlns="http://www.w3.org/2000/svg">
<rect width="150" height="43" rx="10" fill="#FF7300"/>
<path d="M62.1941 13.4594V27.6H60.5144V13.4594H62.1941ZM69.2058 27.8148C66.3152 27.8246 64.3621 25.6371 64.3621 22.3461C64.3621 19.0356 66.3152 16.8578 69.2058 16.8578C72.0867 16.8578 74.0203 19.0356 74.0105 22.3461C74.0203 25.6371 72.0867 27.8246 69.2058 27.8148ZM66.0417 22.3461C66.0515 24.4652 67.0476 26.3305 69.2058 26.3305C71.3445 26.3305 72.3308 24.4652 72.3308 22.3461C72.3308 20.2367 71.3445 18.3422 69.2058 18.3422C67.0476 18.3422 66.0515 20.2367 66.0417 22.3461ZM80.5144 31.7992C77.946 31.7992 76.2078 30.6762 76.0222 28.7133H77.78C78.0046 29.7973 79.0105 30.3344 80.5144 30.3344C82.3308 30.3344 83.4441 29.5434 83.4441 27.7953V25.6469H83.3074C82.946 26.2328 82.2722 27.434 80.2214 27.4438C77.6433 27.434 75.7097 25.4906 75.7097 22.1508C75.7097 18.8891 77.575 16.8578 80.241 16.8578C82.3015 16.8578 82.9656 18.1078 83.3464 18.6742H83.4832V16.9945H85.1238V27.893C85.114 30.6273 83.1023 31.7992 80.5144 31.7992ZM77.4089 22.2094C77.4089 24.4066 78.4441 25.9398 80.4558 25.9398C82.3992 25.9398 83.4734 24.5434 83.4832 22.2094C83.4734 19.934 82.4285 18.3617 80.4558 18.3617C78.4148 18.3617 77.4089 20.0707 77.4089 22.2094ZM92.1355 27.8148C89.2449 27.8246 87.2917 25.6371 87.2917 22.3461C87.2917 19.0356 89.2449 16.8578 92.1355 16.8578C95.0164 16.8578 96.95 19.0356 96.9402 22.3461C96.95 25.6371 95.0164 27.8246 92.1355 27.8148ZM88.9714 22.3461C88.9812 24.4652 89.9773 26.3305 92.1355 26.3305C94.2742 26.3305 95.2605 24.4652 95.2605 22.3461C95.2605 20.2367 94.2742 18.3422 92.1355 18.3422C89.9773 18.3422 88.9812 20.2367 88.9714 22.3461Z" fill="white"/>
</svg>
