<svg width="29" height="22" viewBox="0 0 29 22" fill="none" xmlns="http://www.w3.org/2000/svg">
<path d="M0.787109 22V0.789062H9.10742C13.9268 0.789062 16.6953 3.7627 16.6953 7.9375C16.6953 12.1709 13.8828 15.0859 8.99023 15.0859H5.18164V22H0.787109ZM5.18164 11.541H8.28711C10.8945 11.541 12.1689 10.0762 12.1543 7.9375C12.1689 5.82812 10.8945 4.40723 8.28711 4.39258H5.18164V11.541ZM19.3906 22V6.0918H23.5801V8.8457H23.7559C24.3271 6.89746 25.8066 5.85742 27.5938 5.85742C28.0332 5.85742 28.5898 5.91602 28.9707 6.00391V9.87109C28.5605 9.73926 27.7256 9.63672 27.125 9.63672C25.1621 9.63672 23.7119 10.999 23.7266 12.9473V22H19.3906Z" fill="#EA77FF"/>
</svg>
