<svg width="33" height="23" viewBox="0 0 33 23" fill="none" xmlns="http://www.w3.org/2000/svg">
<path d="M0.787109 22V0.789062H9.10742C13.9268 0.789062 16.6953 3.7627 16.6953 7.9375C16.6953 12.1709 13.8828 15.0859 8.99023 15.0859H5.18164V22H0.787109ZM5.18164 11.541H8.28711C10.8945 11.541 12.1689 10.0762 12.1543 7.9375C12.1689 5.82812 10.8945 4.40723 8.28711 4.39258H5.18164V11.541ZM28.4727 10.8086C28.2822 9.69531 27.3154 8.97754 25.8652 8.96289C24.459 8.97754 23.3896 9.63672 23.4043 10.6035C23.3896 11.3213 23.9463 11.8779 25.4551 12.1855L28.2969 12.7715C31.3877 13.416 32.8818 14.793 32.8965 17.0781C32.8818 20.2129 30.0693 22.3076 25.8359 22.3223C21.5439 22.3076 19.0244 20.3887 18.6582 17.2832H23.0234C23.2285 18.5283 24.2393 19.1729 25.8359 19.1875C27.418 19.1729 28.4727 18.543 28.4727 17.5176C28.4727 16.6973 27.7988 16.1846 26.3047 15.877L23.668 15.3496C20.6357 14.749 19.083 13.1963 19.0977 10.8379C19.083 7.79102 21.7051 5.88672 25.8066 5.88672C29.8203 5.88672 32.3105 7.79102 32.5449 10.8086H28.4727Z" fill="#31A8FF"/>
</svg>
